<?xml version="1.0" encoding="UTF-8" standalone="no"?><svg xmlns="http://www.w3.org/2000/svg" xmlns:xlink="http://www.w3.org/1999/xlink" contentStyleType="text/css" height="909px" preserveAspectRatio="none" style="width:984px;height:909px;background:#FFFFFF;" version="1.1" viewBox="0 0 984 909" width="984px" zoomAndPan="magnify"><defs/><g><!--MD5=[45d42ff7800d812d5f83c7d3273eb427]
class UserRole--><g id="elem_UserRole"><rect codeLine="4" fill="#F1F1F1" height="80.5938" id="UserRole" rx="2.5" ry="2.5" style="stroke:#181818;stroke-width:0.5;" width="95" x="697" y="542"/><ellipse cx="712" cy="558" fill="#EB937F" rx="11" ry="11" style="stroke:#181818;stroke-width:1.0;"/><path d="M716.1094,564 L708.3906,564 L708.3906,551.6094 L716.1094,551.6094 L716.1094,553.7656 L710.8438,553.7656 L710.8438,556.4375 L715.6094,556.4375 L715.6094,558.5938 L710.8438,558.5938 L710.8438,561.8438 L716.1094,561.8438 L716.1094,564 Z " fill="#000000"/><text fill="#000000" font-family="sans-serif" font-size="14" lengthAdjust="spacing" textLength="63" x="726" y="562.8467">UserRole</text><line style="stroke:#181818;stroke-width:0.5;" x1="698" x2="791" y1="574" y2="574"/><text fill="#000000" font-family="sans-serif" font-size="14" lengthAdjust="spacing" textLength="43" x="703" y="590.9951">Admin</text><text fill="#000000" font-family="sans-serif" font-size="14" lengthAdjust="spacing" textLength="32" x="703" y="607.292">User</text><line style="stroke:#181818;stroke-width:0.5;" x1="698" x2="791" y1="614.5938" y2="614.5938"/></g><!--MD5=[3fd616f346a44cd59a91eb10b19e157c]
class User--><g id="elem_User"><rect codeLine="12" fill="#F1F1F1" height="227.2656" id="User" rx="2.5" ry="2.5" style="stroke:#181818;stroke-width:0.5;" width="249" x="536" y="181"/><ellipse cx="640.25" cy="197" fill="#ADD1B2" rx="11" ry="11" style="stroke:#181818;stroke-width:1.0;"/><path d="M643.2188,202.6406 Q642.6406,202.9375 642,203.0781 Q641.3594,203.2344 640.6563,203.2344 Q638.1563,203.2344 636.8281,201.5938 Q635.5156,199.9375 635.5156,196.8125 Q635.5156,193.6875 636.8281,192.0313 Q638.1563,190.375 640.6563,190.375 Q641.3594,190.375 642,190.5313 Q642.6563,190.6875 643.2188,190.9844 L643.2188,193.7031 Q642.5938,193.125 642,192.8594 Q641.4063,192.5781 640.7813,192.5781 Q639.4375,192.5781 638.75,193.6563 Q638.0625,194.7188 638.0625,196.8125 Q638.0625,198.9063 638.75,199.9844 Q639.4375,201.0469 640.7813,201.0469 Q641.4063,201.0469 642,200.7813 Q642.5938,200.5 643.2188,199.9219 L643.2188,202.6406 Z " fill="#000000"/><text fill="#000000" font-family="sans-serif" font-size="14" lengthAdjust="spacing" textLength="32" x="660.75" y="201.8467">User</text><line style="stroke:#181818;stroke-width:0.5;" x1="537" x2="784" y1="213" y2="213"/><ellipse cx="547" cy="226.6484" fill="none" rx="3" ry="3" style="stroke:#038048;stroke-width:1.0;"/><text fill="#000000" font-family="sans-serif" font-size="14" lengthAdjust="spacing" textLength="33" x="556" y="229.9951">int Id</text><ellipse cx="547" cy="242.9453" fill="none" rx="3" ry="3" style="stroke:#038048;stroke-width:1.0;"/><text fill="#000000" font-family="sans-serif" font-size="14" lengthAdjust="spacing" textLength="112" x="556" y="246.292">string FirstName</text><ellipse cx="547" cy="259.2422" fill="none" rx="3" ry="3" style="stroke:#038048;stroke-width:1.0;"/><text fill="#000000" font-family="sans-serif" font-size="14" lengthAdjust="spacing" textLength="111" x="556" y="262.5889">string LastName</text><ellipse cx="547" cy="275.5391" fill="none" rx="3" ry="3" style="stroke:#038048;stroke-width:1.0;"/><text fill="#000000" font-family="sans-serif" font-size="14" lengthAdjust="spacing" textLength="79" x="556" y="278.8857">string Email</text><ellipse cx="547" cy="291.8359" fill="none" rx="3" ry="3" style="stroke:#038048;stroke-width:1.0;"/><text fill="#000000" font-family="sans-serif" font-size="14" lengthAdjust="spacing" textLength="110" x="556" y="295.1826">string Password</text><ellipse cx="547" cy="308.1328" fill="none" rx="3" ry="3" style="stroke:#038048;stroke-width:1.0;"/><text fill="#000000" font-family="sans-serif" font-size="14" lengthAdjust="spacing" textLength="98" x="556" y="311.4795">UserRole Role</text><ellipse cx="547" cy="324.4297" fill="none" rx="3" ry="3" style="stroke:#038048;stroke-width:1.0;"/><text fill="#000000" font-family="sans-serif" font-size="14" lengthAdjust="spacing" textLength="83" x="556" y="327.7764">int? GroupId</text><ellipse cx="547" cy="340.7266" fill="none" rx="3" ry="3" style="stroke:#038048;stroke-width:1.0;"/><text fill="#000000" font-family="sans-serif" font-size="14" lengthAdjust="spacing" textLength="100" x="556" y="344.0732">int? ManagerId</text><text fill="#000000" font-family="sans-serif" font-size="14" lengthAdjust="spacing" textLength="4" x="556" y="360.3701"> </text><line style="stroke:#181818;stroke-width:1.0;" x1="537" x2="784" y1="367.6719" y2="367.6719"/><ellipse cx="547" cy="381.3203" fill="none" rx="3" ry="3" style="stroke:#038048;stroke-width:1.0;"/><text fill="#000000" font-family="sans-serif" font-size="14" lengthAdjust="spacing" textLength="96" x="556" y="384.667">User Manager</text><ellipse cx="547" cy="397.6172" fill="none" rx="3" ry="3" style="stroke:#038048;stroke-width:1.0;"/><text fill="#000000" font-family="sans-serif" font-size="14" lengthAdjust="spacing" textLength="223" x="556" y="400.9639">ICollection&lt;User&gt; Subordinates</text></g><!--MD5=[41314a0efc36828092cff9ebad2fcafd]
class Group--><g id="elem_Group"><rect codeLine="26" fill="#F1F1F1" height="96.8906" id="Group" rx="2.5" ry="2.5" style="stroke:#181818;stroke-width:0.5;" width="197" x="562" y="7"/><ellipse cx="634.75" cy="23" fill="#ADD1B2" rx="11" ry="11" style="stroke:#181818;stroke-width:1.0;"/><path d="M637.7188,28.6406 Q637.1406,28.9375 636.5,29.0781 Q635.8594,29.2344 635.1563,29.2344 Q632.6563,29.2344 631.3281,27.5938 Q630.0156,25.9375 630.0156,22.8125 Q630.0156,19.6875 631.3281,18.0313 Q632.6563,16.375 635.1563,16.375 Q635.8594,16.375 636.5,16.5313 Q637.1563,16.6875 637.7188,16.9844 L637.7188,19.7031 Q637.0938,19.125 636.5,18.8594 Q635.9063,18.5781 635.2813,18.5781 Q633.9375,18.5781 633.25,19.6563 Q632.5625,20.7188 632.5625,22.8125 Q632.5625,24.9063 633.25,25.9844 Q633.9375,27.0469 635.2813,27.0469 Q635.9063,27.0469 636.5,26.7813 Q637.0938,26.5 637.7188,25.9219 L637.7188,28.6406 Z " fill="#000000"/><text fill="#000000" font-family="sans-serif" font-size="14" lengthAdjust="spacing" textLength="43" x="655.25" y="27.8467">Group</text><line style="stroke:#181818;stroke-width:0.5;" x1="563" x2="758" y1="39" y2="39"/><ellipse cx="573" cy="52.6484" fill="none" rx="3" ry="3" style="stroke:#038048;stroke-width:1.0;"/><text fill="#000000" font-family="sans-serif" font-size="14" lengthAdjust="spacing" textLength="33" x="582" y="55.9951">int Id</text><ellipse cx="573" cy="68.9453" fill="none" rx="3" ry="3" style="stroke:#038048;stroke-width:1.0;"/><text fill="#000000" font-family="sans-serif" font-size="14" lengthAdjust="spacing" textLength="83" x="582" y="72.292">string Name</text><line style="stroke:#181818;stroke-width:1.0;" x1="563" x2="758" y1="79.5938" y2="79.5938"/><ellipse cx="573" cy="93.2422" fill="none" rx="3" ry="3" style="stroke:#038048;stroke-width:1.0;"/><text fill="#000000" font-family="sans-serif" font-size="14" lengthAdjust="spacing" textLength="171" x="582" y="96.5889">ICollection&lt;User&gt; Users</text></g><!--MD5=[69bf2be6d9fff07ffc9075bf456291dd]
class EvaluationCycle--><g id="elem_EvaluationCycle"><rect codeLine="33" fill="#F1F1F1" height="145.7813" id="EvaluationCycle" rx="2.5" ry="2.5" style="stroke:#181818;stroke-width:0.5;" width="273" x="228" y="221.5"/><ellipse cx="306.75" cy="237.5" fill="#ADD1B2" rx="11" ry="11" style="stroke:#181818;stroke-width:1.0;"/><path d="M309.7188,243.1406 Q309.1406,243.4375 308.5,243.5781 Q307.8594,243.7344 307.1563,243.7344 Q304.6563,243.7344 303.3281,242.0938 Q302.0156,240.4375 302.0156,237.3125 Q302.0156,234.1875 303.3281,232.5313 Q304.6563,230.875 307.1563,230.875 Q307.8594,230.875 308.5,231.0313 Q309.1563,231.1875 309.7188,231.4844 L309.7188,234.2031 Q309.0938,233.625 308.5,233.3594 Q307.9063,233.0781 307.2813,233.0781 Q305.9375,233.0781 305.25,234.1563 Q304.5625,235.2188 304.5625,237.3125 Q304.5625,239.4063 305.25,240.4844 Q305.9375,241.5469 307.2813,241.5469 Q307.9063,241.5469 308.5,241.2813 Q309.0938,241 309.7188,240.4219 L309.7188,243.1406 Z " fill="#000000"/><text fill="#000000" font-family="sans-serif" font-size="14" lengthAdjust="spacing" textLength="107" x="327.25" y="242.3467">EvaluationCycle</text><line style="stroke:#181818;stroke-width:0.5;" x1="229" x2="500" y1="253.5" y2="253.5"/><ellipse cx="239" cy="267.1484" fill="none" rx="3" ry="3" style="stroke:#038048;stroke-width:1.0;"/><text fill="#000000" font-family="sans-serif" font-size="14" lengthAdjust="spacing" textLength="33" x="248" y="270.4951">int Id</text><ellipse cx="239" cy="283.4453" fill="none" rx="3" ry="3" style="stroke:#038048;stroke-width:1.0;"/><text fill="#000000" font-family="sans-serif" font-size="14" lengthAdjust="spacing" textLength="72" x="248" y="286.792">string Title</text><ellipse cx="239" cy="299.7422" fill="none" rx="3" ry="3" style="stroke:#038048;stroke-width:1.0;"/><text fill="#000000" font-family="sans-serif" font-size="14" lengthAdjust="spacing" textLength="136" x="248" y="303.0889">DateTime StartDate</text><ellipse cx="239" cy="316.0391" fill="none" rx="3" ry="3" style="stroke:#038048;stroke-width:1.0;"/><text fill="#000000" font-family="sans-serif" font-size="14" lengthAdjust="spacing" textLength="131" x="248" y="319.3857">DateTime EndDate</text><ellipse cx="239" cy="332.3359" fill="none" rx="3" ry="3" style="stroke:#038048;stroke-width:1.0;"/><text fill="#000000" font-family="sans-serif" font-size="14" lengthAdjust="spacing" textLength="65" x="248" y="335.6826">int Status</text><line style="stroke:#181818;stroke-width:1.0;" x1="229" x2="500" y1="342.9844" y2="342.9844"/><ellipse cx="239" cy="356.6328" fill="none" rx="3" ry="3" style="stroke:#038048;stroke-width:1.0;"/><text fill="#000000" font-family="sans-serif" font-size="14" lengthAdjust="spacing" textLength="247" x="248" y="359.9795">ICollection&lt;Evaluation&gt; Evaluations</text></g><!--MD5=[fc7123defb831ecdd44b2d9bcef6cceb]
class Question--><g id="elem_Question"><rect codeLine="43" fill="#F1F1F1" height="96.8906" id="Question" rx="2.5" ry="2.5" style="stroke:#181818;stroke-width:0.5;" width="305" x="7" y="534"/><ellipse cx="123.75" cy="550" fill="#ADD1B2" rx="11" ry="11" style="stroke:#181818;stroke-width:1.0;"/><path d="M126.7188,555.6406 Q126.1406,555.9375 125.5,556.0781 Q124.8594,556.2344 124.1563,556.2344 Q121.6563,556.2344 120.3281,554.5938 Q119.0156,552.9375 119.0156,549.8125 Q119.0156,546.6875 120.3281,545.0313 Q121.6563,543.375 124.1563,543.375 Q124.8594,543.375 125.5,543.5313 Q126.1563,543.6875 126.7188,543.9844 L126.7188,546.7031 Q126.0938,546.125 125.5,545.8594 Q124.9063,545.5781 124.2813,545.5781 Q122.9375,545.5781 122.25,546.6563 Q121.5625,547.7188 121.5625,549.8125 Q121.5625,551.9063 122.25,552.9844 Q122.9375,554.0469 124.2813,554.0469 Q124.9063,554.0469 125.5,553.7813 Q126.0938,553.5 126.7188,552.9219 L126.7188,555.6406 Z " fill="#000000"/><text fill="#000000" font-family="sans-serif" font-size="14" lengthAdjust="spacing" textLength="63" x="144.25" y="554.8467">Question</text><line style="stroke:#181818;stroke-width:0.5;" x1="8" x2="311" y1="566" y2="566"/><ellipse cx="18" cy="579.6484" fill="none" rx="3" ry="3" style="stroke:#038048;stroke-width:1.0;"/><text fill="#000000" font-family="sans-serif" font-size="14" lengthAdjust="spacing" textLength="33" x="27" y="582.9951">int Id</text><ellipse cx="18" cy="595.9453" fill="none" rx="3" ry="3" style="stroke:#038048;stroke-width:1.0;"/><text fill="#000000" font-family="sans-serif" font-size="14" lengthAdjust="spacing" textLength="73" x="27" y="599.292">string Text</text><line style="stroke:#181818;stroke-width:1.0;" x1="8" x2="311" y1="606.5938" y2="606.5938"/><ellipse cx="18" cy="620.2422" fill="none" rx="3" ry="3" style="stroke:#038048;stroke-width:1.0;"/><text fill="#000000" font-family="sans-serif" font-size="14" lengthAdjust="spacing" textLength="279" x="27" y="623.5889">ICollection&lt;EvaluationAnswer&gt; Answers</text></g><!--MD5=[71e8807956d33805e77353b9d7e2df39]
class Evaluation--><g id="elem_Evaluation"><rect codeLine="50" fill="#F1F1F1" height="194.6719" id="Evaluation" rx="2.5" ry="2.5" style="stroke:#181818;stroke-width:0.5;" width="305" x="347" y="485"/><ellipse cx="460.25" cy="501" fill="#ADD1B2" rx="11" ry="11" style="stroke:#181818;stroke-width:1.0;"/><path d="M463.2188,506.6406 Q462.6406,506.9375 462,507.0781 Q461.3594,507.2344 460.6563,507.2344 Q458.1563,507.2344 456.8281,505.5938 Q455.5156,503.9375 455.5156,500.8125 Q455.5156,497.6875 456.8281,496.0313 Q458.1563,494.375 460.6563,494.375 Q461.3594,494.375 462,494.5313 Q462.6563,494.6875 463.2188,494.9844 L463.2188,497.7031 Q462.5938,497.125 462,496.8594 Q461.4063,496.5781 460.7813,496.5781 Q459.4375,496.5781 458.75,497.6563 Q458.0625,498.7188 458.0625,500.8125 Q458.0625,502.9063 458.75,503.9844 Q459.4375,505.0469 460.7813,505.0469 Q461.4063,505.0469 462,504.7813 Q462.5938,504.5 463.2188,503.9219 L463.2188,506.6406 Z " fill="#000000"/><text fill="#000000" font-family="sans-serif" font-size="14" lengthAdjust="spacing" textLength="70" x="480.75" y="505.8467">Evaluation</text><line style="stroke:#181818;stroke-width:0.5;" x1="348" x2="651" y1="517" y2="517"/><ellipse cx="358" cy="530.6484" fill="none" rx="3" ry="3" style="stroke:#038048;stroke-width:1.0;"/><text fill="#000000" font-family="sans-serif" font-size="14" lengthAdjust="spacing" textLength="33" x="367" y="533.9951">int Id</text><ellipse cx="358" cy="546.9453" fill="none" rx="3" ry="3" style="stroke:#038048;stroke-width:1.0;"/><text fill="#000000" font-family="sans-serif" font-size="14" lengthAdjust="spacing" textLength="128" x="367" y="550.292">int EvaluatorUserId</text><ellipse cx="358" cy="563.2422" fill="none" rx="3" ry="3" style="stroke:#038048;stroke-width:1.0;"/><text fill="#000000" font-family="sans-serif" font-size="14" lengthAdjust="spacing" textLength="132" x="367" y="566.5889">int EvaluateeUserId</text><ellipse cx="358" cy="579.5391" fill="none" rx="3" ry="3" style="stroke:#038048;stroke-width:1.0;"/><text fill="#000000" font-family="sans-serif" font-size="14" lengthAdjust="spacing" textLength="140" x="367" y="582.8857">int EvaluationCycleId</text><ellipse cx="358" cy="595.8359" fill="none" rx="3" ry="3" style="stroke:#038048;stroke-width:1.0;"/><text fill="#000000" font-family="sans-serif" font-size="14" lengthAdjust="spacing" textLength="148" x="367" y="599.1826">DateTime Timestamp</text><line style="stroke:#181818;stroke-width:1.0;" x1="348" x2="651" y1="606.4844" y2="606.4844"/><ellipse cx="358" cy="620.1328" fill="none" rx="3" ry="3" style="stroke:#038048;stroke-width:1.0;"/><text fill="#000000" font-family="sans-serif" font-size="14" lengthAdjust="spacing" textLength="131" x="367" y="623.4795">User EvaluatorUser</text><ellipse cx="358" cy="636.4297" fill="none" rx="3" ry="3" style="stroke:#038048;stroke-width:1.0;"/><text fill="#000000" font-family="sans-serif" font-size="14" lengthAdjust="spacing" textLength="135" x="367" y="639.7764">User EvaluateeUser</text><ellipse cx="358" cy="652.7266" fill="none" rx="3" ry="3" style="stroke:#038048;stroke-width:1.0;"/><text fill="#000000" font-family="sans-serif" font-size="14" lengthAdjust="spacing" textLength="218" x="367" y="656.0732">EvaluationCycle EvaluationCycle</text><ellipse cx="358" cy="669.0234" fill="none" rx="3" ry="3" style="stroke:#038048;stroke-width:1.0;"/><text fill="#000000" font-family="sans-serif" font-size="14" lengthAdjust="spacing" textLength="279" x="367" y="672.3701">ICollection&lt;EvaluationAnswer&gt; Answers</text></g><!--MD5=[cfff7382b68299de22e2a7542bdf6753]
class EvaluationAnswer--><g id="elem_EvaluationAnswer"><rect codeLine="63" fill="#F1F1F1" height="145.7813" id="EvaluationAnswer" rx="2.5" ry="2.5" style="stroke:#181818;stroke-width:0.5;" width="170" x="116.5" y="757"/><ellipse cx="139.15" cy="773" fill="#ADD1B2" rx="11" ry="11" style="stroke:#181818;stroke-width:1.0;"/><path d="M142.1188,778.6406 Q141.5406,778.9375 140.9,779.0781 Q140.2594,779.2344 139.5563,779.2344 Q137.0563,779.2344 135.7281,777.5938 Q134.4156,775.9375 134.4156,772.8125 Q134.4156,769.6875 135.7281,768.0313 Q137.0563,766.375 139.5563,766.375 Q140.2594,766.375 140.9,766.5313 Q141.5563,766.6875 142.1188,766.9844 L142.1188,769.7031 Q141.4938,769.125 140.9,768.8594 Q140.3063,768.5781 139.6813,768.5781 Q138.3375,768.5781 137.65,769.6563 Q136.9625,770.7188 136.9625,772.8125 Q136.9625,774.9063 137.65,775.9844 Q138.3375,777.0469 139.6813,777.0469 Q140.3063,777.0469 140.9,776.7813 Q141.4938,776.5 142.1188,775.9219 L142.1188,778.6406 Z " fill="#000000"/><text fill="#000000" font-family="sans-serif" font-size="14" lengthAdjust="spacing" textLength="121" x="154.85" y="777.8467">EvaluationAnswer</text><line style="stroke:#181818;stroke-width:0.5;" x1="117.5" x2="285.5" y1="789" y2="789"/><ellipse cx="127.5" cy="802.6484" fill="none" rx="3" ry="3" style="stroke:#038048;stroke-width:1.0;"/><text fill="#000000" font-family="sans-serif" font-size="14" lengthAdjust="spacing" textLength="33" x="136.5" y="805.9951">int Id</text><ellipse cx="127.5" cy="818.9453" fill="none" rx="3" ry="3" style="stroke:#038048;stroke-width:1.0;"/><text fill="#000000" font-family="sans-serif" font-size="14" lengthAdjust="spacing" textLength="103" x="136.5" y="822.292">int EvaluationId</text><ellipse cx="127.5" cy="835.2422" fill="none" rx="3" ry="3" style="stroke:#038048;stroke-width:1.0;"/><text fill="#000000" font-family="sans-serif" font-size="14" lengthAdjust="spacing" textLength="96" x="136.5" y="838.5889">int QuestionId</text><ellipse cx="127.5" cy="851.5391" fill="none" rx="3" ry="3" style="stroke:#038048;stroke-width:1.0;"/><text fill="#000000" font-family="sans-serif" font-size="14" lengthAdjust="spacing" textLength="132" x="136.5" y="854.8857">string AnswerValue</text><line style="stroke:#181818;stroke-width:1.0;" x1="117.5" x2="285.5" y1="862.1875" y2="862.1875"/><ellipse cx="127.5" cy="875.8359" fill="none" rx="3" ry="3" style="stroke:#038048;stroke-width:1.0;"/><text fill="#000000" font-family="sans-serif" font-size="14" lengthAdjust="spacing" textLength="144" x="136.5" y="879.1826">Evaluation Evaluation</text><ellipse cx="127.5" cy="892.1328" fill="none" rx="3" ry="3" style="stroke:#038048;stroke-width:1.0;"/><text fill="#000000" font-family="sans-serif" font-size="14" lengthAdjust="spacing" textLength="130" x="136.5" y="895.4795">Question Question</text></g><!--MD5=[1f12d177c84922ed4f166f09ee62ceaa]
link User to UserRole--><g id="link_User_UserRole"><path codeLine="78" d="M696.54,408.16 C699.62,418.23 702.65,428.29 705.5,438 C715.2,471.02 725.37,508.55 732.89,536.95 " fill="none" id="User-to-UserRole" style="stroke:#181818;stroke-width:1.0;stroke-dasharray:7.0,7.0;"/><polygon fill="#181818" points="734.17,541.79,735.7464,532.0681,732.8968,536.9548,728.0101,534.1052,734.17,541.79" style="stroke:#181818;stroke-width:1.0;"/><text fill="#000000" font-family="sans-serif" font-size="13" lengthAdjust="spacing" textLength="30" x="710.5" y="451.0669">uses</text></g><!--MD5=[6be56f846aeaa669626e62109c72d129]
link Group to User--><g id="link_Group_User"><path codeLine="81" d="M660.5,104.18 C660.5,126.34 660.5,153.73 660.5,180.73 " fill="none" id="Group-User" style="stroke:#181818;stroke-width:1.0;"/><text fill="#000000" font-family="sans-serif" font-size="13" lengthAdjust="spacing" textLength="23" x="661.5" y="147.0669">has</text><text fill="#000000" font-family="sans-serif" font-size="13" lengthAdjust="spacing" textLength="8" x="651.9625" y="123.8124">1</text><text fill="#000000" font-family="sans-serif" font-size="13" lengthAdjust="spacing" textLength="23" x="636.7633" y="170.0238">0..*</text></g><!--MD5=[993a1ed30139d6bc9fd462e29443e622]
link User to User--><g id="link_User_User"><path codeLine="85" d="M785.22,268.07 C805.82,271.81 820,280.62 820,294.5 C820,308.38 805.82,317.19 785.22,320.93 " fill="none" id="User-User" style="stroke:#181818;stroke-width:1.0;"/><text fill="#000000" font-family="sans-serif" font-size="13" lengthAdjust="spacing" textLength="145" x="826" y="299.0669">manager/subordinates</text><text fill="#000000" font-family="sans-serif" font-size="13" lengthAdjust="spacing" textLength="24" x="793.1241" y="263.1715">0..1</text><text fill="#000000" font-family="sans-serif" font-size="13" lengthAdjust="spacing" textLength="23" x="793.0952" y="319.0874">0..*</text></g><!--MD5=[7bfca3e64c180476b8ea0ffa8c59e7e2]
link User to Evaluation--><g id="link_User_Evaluation"><path codeLine="89" d="M535.65,392.47 C516.93,409.66 502.02,425.9 496.5,438 C489.88,452.51 486.76,468.74 485.81,484.91 " fill="none" id="User-Evaluation" style="stroke:#181818;stroke-width:1.0;"/><text fill="#000000" font-family="sans-serif" font-size="13" lengthAdjust="spacing" textLength="79" x="497.5" y="451.0669">as Evaluator</text><text fill="#000000" font-family="sans-serif" font-size="13" lengthAdjust="spacing" textLength="8" x="520.2009" y="394.7634">1</text><text fill="#000000" font-family="sans-serif" font-size="13" lengthAdjust="spacing" textLength="23" x="460.8814" y="473.9486">0..*</text></g><!--MD5=[7bfca3e64c180476b8ea0ffa8c59e7e2]
link User to Evaluation--><g id="link_User_Evaluation"><path codeLine="90" d="M606.64,408.33 C598.5,424.16 589.98,440.1 581.5,455 C575.93,464.78 569.92,474.84 563.77,484.82 " fill="none" id="User-Evaluation-1" style="stroke:#181818;stroke-width:1.0;"/><text fill="#000000" font-family="sans-serif" font-size="13" lengthAdjust="spacing" textLength="82" x="591.5" y="451.0669">as Evaluatee</text><text fill="#000000" font-family="sans-serif" font-size="13" lengthAdjust="spacing" textLength="8" x="594.9333" y="428.1653">1</text><text fill="#000000" font-family="sans-serif" font-size="13" lengthAdjust="spacing" textLength="23" x="544.8102" y="473.8517">0..*</text></g><!--MD5=[95cc830b1f0f8bd63d74c51e9ff3da4f]
link EvaluationCycle to Evaluation--><g id="link_EvaluationCycle_Evaluation"><path codeLine="93" d="M373.81,367.61 C379.21,395.8 387.6,427.81 400.5,455 C405.28,465.08 410.99,475.1 417.21,484.82 " fill="none" id="EvaluationCycle-Evaluation" style="stroke:#181818;stroke-width:1.0;"/><text fill="#000000" font-family="sans-serif" font-size="13" lengthAdjust="spacing" textLength="54" x="401.5" y="451.0669">contains</text><text fill="#000000" font-family="sans-serif" font-size="13" lengthAdjust="spacing" textLength="8" x="366.3161" y="387.3768">1</text><text fill="#000000" font-family="sans-serif" font-size="13" lengthAdjust="spacing" textLength="23" x="387.0292" y="473.8517">0..*</text></g><!--MD5=[9bf57a4e3bc4d2861630a45ad38a59ff]
link Evaluation to EvaluationAnswer--><g id="link_Evaluation_EvaluationAnswer"><path codeLine="96" d="M382.15,680.18 C350.23,706.47 316.27,734.45 286.52,758.96 " fill="none" id="Evaluation-EvaluationAnswer" style="stroke:#181818;stroke-width:1.0;"/><text fill="#000000" font-family="sans-serif" font-size="13" lengthAdjust="spacing" textLength="23" x="343.5" y="723.0669">has</text><text fill="#000000" font-family="sans-serif" font-size="13" lengthAdjust="spacing" textLength="8" x="365.6176" y="699.6586">1</text><text fill="#000000" font-family="sans-serif" font-size="13" lengthAdjust="spacing" textLength="23" x="294.5131" y="749.5374">0..*</text></g><!--MD5=[fead0c96d233f29216e4a27667d0a38c]
link Question to EvaluationAnswer--><g id="link_Question_EvaluationAnswer"><path codeLine="99" d="M167.65,631.13 C173.75,666.82 182.22,716.29 189.15,756.84 " fill="none" id="Question-EvaluationAnswer" style="stroke:#181818;stroke-width:1.0;"/><text fill="#000000" font-family="sans-serif" font-size="13" lengthAdjust="spacing" textLength="42" x="184.5" y="723.0669">usedIn</text><text fill="#000000" font-family="sans-serif" font-size="13" lengthAdjust="spacing" textLength="8" x="160.2336" y="651.1072">1</text><text fill="#000000" font-family="sans-serif" font-size="13" lengthAdjust="spacing" textLength="23" x="163.8023" y="745.9842">0..*</text></g><!--MD5=[be4a8e506d00a6132488b5e7bf691782]
@startuml
'===========================================================
' Ορισμός Enum κλάσης για ρόλους
'===========================================================
enum UserRole {
  Admin
  User
}

'===========================================================
' Κλάσεις
'===========================================================
class User {
  + int Id
  + string FirstName
  + string LastName
  + string Email
  + string Password
  + UserRole Role
  + int? GroupId
  + int? ManagerId

  - -
  + User Manager              
  + ICollection<User> Subordinates
}
class Group {
  + int Id
  + string Name
  - -
  + ICollection<User> Users
}

class EvaluationCycle {
  + int Id
  + string Title
  + DateTime StartDate
  + DateTime EndDate
  + int Status
  - -
  + ICollection<Evaluation> Evaluations
}

class Question {
  + int Id
  + string Text
  - -
  + ICollection<EvaluationAnswer> Answers
}

class Evaluation {
  + int Id
  + int EvaluatorUserId
  + int EvaluateeUserId
  + int EvaluationCycleId
  + DateTime Timestamp
  - -
  + User EvaluatorUser
  + User EvaluateeUser
  + EvaluationCycle EvaluationCycle
  + ICollection<EvaluationAnswer> Answers
}

class EvaluationAnswer {
  + int Id
  + int EvaluationId
  + int QuestionId
  + string AnswerValue
  - -
  + Evaluation Evaluation
  + Question Question
}

'===========================================================
' Συσχετίσεις (Relationships)
'===========================================================

' Ένας User χρησιμοποιεί UserRole
User ..> UserRole : uses

' Ένα Group έχει πολλούς Users
Group "1" - - "0..*" User : has

' Συσχέτιση manager μεταξύ χρηστών:
' Ένας User μπορεί να έχει 0 ή 1 Manager (ο οποίος είναι επίσης User)
User "0..1" - - "0..*" User : manager/subordinates

' Ένας User μπορεί να κάνει πολλές Evaluations (ως Evaluator)
' και να δεχτεί πολλές Evaluations (ως Evaluatee)
User "1" - - "0..*" Evaluation : as Evaluator
User "1" - - "0..*" Evaluation : as Evaluatee

' Ένας EvaluationCycle περιέχει πολλές Evaluations
EvaluationCycle "1" - - "0..*" Evaluation : contains

' Κάθε Evaluation συνδέεται με πολλά EvaluationAnswer
Evaluation "1" - - "0..*" EvaluationAnswer : has

' Μία Question μπορεί να είναι μέρος πολλών EvaluationAnswer
Question "1" - - "0..*" EvaluationAnswer : usedIn
@enduml

@startuml
enum UserRole {
  Admin
  User
}

class User {
  + int Id
  + string FirstName
  + string LastName
  + string Email
  + string Password
  + UserRole Role
  + int? GroupId
  + int? ManagerId

  - -
  + User Manager              
  + ICollection<User> Subordinates
}
class Group {
  + int Id
  + string Name
  - -
  + ICollection<User> Users
}

class EvaluationCycle {
  + int Id
  + string Title
  + DateTime StartDate
  + DateTime EndDate
  + int Status
  - -
  + ICollection<Evaluation> Evaluations
}

class Question {
  + int Id
  + string Text
  - -
  + ICollection<EvaluationAnswer> Answers
}

class Evaluation {
  + int Id
  + int EvaluatorUserId
  + int EvaluateeUserId
  + int EvaluationCycleId
  + DateTime Timestamp
  - -
  + User EvaluatorUser
  + User EvaluateeUser
  + EvaluationCycle EvaluationCycle
  + ICollection<EvaluationAnswer> Answers
}

class EvaluationAnswer {
  + int Id
  + int EvaluationId
  + int QuestionId
  + string AnswerValue
  - -
  + Evaluation Evaluation
  + Question Question
}


User ..> UserRole : uses

Group "1" - - "0..*" User : has

User "0..1" - - "0..*" User : manager/subordinates

User "1" - - "0..*" Evaluation : as Evaluator
User "1" - - "0..*" Evaluation : as Evaluatee

EvaluationCycle "1" - - "0..*" Evaluation : contains

Evaluation "1" - - "0..*" EvaluationAnswer : has

Question "1" - - "0..*" EvaluationAnswer : usedIn
@enduml

PlantUML version 1.2022.7(Mon Aug 22 17:01:30 UTC 2022)
(GPL source distribution)
Java Runtime: OpenJDK Runtime Environment
JVM: OpenJDK 64-Bit Server VM
Default Encoding: UTF-8
Language: en
Country: null
--></g></svg>