<?xml version="1.0" encoding="UTF-8" standalone="no"?><svg xmlns="http://www.w3.org/2000/svg" xmlns:xlink="http://www.w3.org/1999/xlink" contentStyleType="text/css" height="877px" preserveAspectRatio="none" style="width:1090px;height:877px;background:#FFFFFF;" version="1.1" viewBox="0 0 1090 877" width="1090px" zoomAndPan="magnify"><defs/><g><!--MD5=[45d42ff7800d812d5f83c7d3273eb427]
class UserRole--><g id="elem_UserRole"><rect codeLine="4" fill="#F1F1F1" height="80.5938" id="UserRole" rx="2.5" ry="2.5" style="stroke:#181818;stroke-width:0.5;" width="95" x="697" y="510"/><ellipse cx="712" cy="526" fill="#EB937F" rx="11" ry="11" style="stroke:#181818;stroke-width:1.0;"/><path d="M716.1094,532 L708.3906,532 L708.3906,519.6094 L716.1094,519.6094 L716.1094,521.7656 L710.8438,521.7656 L710.8438,524.4375 L715.6094,524.4375 L715.6094,526.5938 L710.8438,526.5938 L710.8438,529.8438 L716.1094,529.8438 L716.1094,532 Z " fill="#000000"/><text fill="#000000" font-family="sans-serif" font-size="14" lengthAdjust="spacing" textLength="63" x="726" y="530.8467">UserRole</text><line style="stroke:#181818;stroke-width:0.5;" x1="698" x2="791" y1="542" y2="542"/><text fill="#000000" font-family="sans-serif" font-size="14" lengthAdjust="spacing" textLength="43" x="703" y="558.9951">Admin</text><text fill="#000000" font-family="sans-serif" font-size="14" lengthAdjust="spacing" textLength="32" x="703" y="575.292">User</text><line style="stroke:#181818;stroke-width:0.5;" x1="698" x2="791" y1="582.5938" y2="582.5938"/></g><!--MD5=[3fd616f346a44cd59a91eb10b19e157c]
class User--><g id="elem_User"><rect codeLine="12" fill="#F1F1F1" height="194.6719" id="User" rx="2.5" ry="2.5" style="stroke:#181818;stroke-width:0.5;" width="417" x="474" y="181"/><ellipse cx="662.25" cy="197" fill="#ADD1B2" rx="11" ry="11" style="stroke:#181818;stroke-width:1.0;"/><path d="M665.2188,202.6406 Q664.6406,202.9375 664,203.0781 Q663.3594,203.2344 662.6563,203.2344 Q660.1563,203.2344 658.8281,201.5938 Q657.5156,199.9375 657.5156,196.8125 Q657.5156,193.6875 658.8281,192.0313 Q660.1563,190.375 662.6563,190.375 Q663.3594,190.375 664,190.5313 Q664.6563,190.6875 665.2188,190.9844 L665.2188,193.7031 Q664.5938,193.125 664,192.8594 Q663.4063,192.5781 662.7813,192.5781 Q661.4375,192.5781 660.75,193.6563 Q660.0625,194.7188 660.0625,196.8125 Q660.0625,198.9063 660.75,199.9844 Q661.4375,201.0469 662.7813,201.0469 Q663.4063,201.0469 664,200.7813 Q664.5938,200.5 665.2188,199.9219 L665.2188,202.6406 Z " fill="#000000"/><text fill="#000000" font-family="sans-serif" font-size="14" lengthAdjust="spacing" textLength="32" x="682.75" y="201.8467">User</text><line style="stroke:#181818;stroke-width:0.5;" x1="475" x2="890" y1="213" y2="213"/><ellipse cx="485" cy="226.6484" fill="none" rx="3" ry="3" style="stroke:#038048;stroke-width:1.0;"/><text fill="#000000" font-family="sans-serif" font-size="14" lengthAdjust="spacing" textLength="33" x="494" y="229.9951">int Id</text><ellipse cx="485" cy="242.9453" fill="none" rx="3" ry="3" style="stroke:#038048;stroke-width:1.0;"/><text fill="#000000" font-family="sans-serif" font-size="14" lengthAdjust="spacing" textLength="112" x="494" y="246.292">string FirstName</text><ellipse cx="485" cy="259.2422" fill="none" rx="3" ry="3" style="stroke:#038048;stroke-width:1.0;"/><text fill="#000000" font-family="sans-serif" font-size="14" lengthAdjust="spacing" textLength="111" x="494" y="262.5889">string LastName</text><ellipse cx="485" cy="275.5391" fill="none" rx="3" ry="3" style="stroke:#038048;stroke-width:1.0;"/><text fill="#000000" font-family="sans-serif" font-size="14" lengthAdjust="spacing" textLength="79" x="494" y="278.8857">string Email</text><ellipse cx="485" cy="291.8359" fill="none" rx="3" ry="3" style="stroke:#038048;stroke-width:1.0;"/><text fill="#000000" font-family="sans-serif" font-size="14" lengthAdjust="spacing" textLength="98" x="494" y="295.1826">UserRole Role</text><ellipse cx="485" cy="308.1328" fill="none" rx="3" ry="3" style="stroke:#038048;stroke-width:1.0;"/><text fill="#000000" font-family="sans-serif" font-size="14" lengthAdjust="spacing" textLength="83" x="494" y="311.4795">int? GroupId</text><ellipse cx="485" cy="324.4297" fill="none" rx="3" ry="3" style="stroke:#038048;stroke-width:1.0;"/><text fill="#000000" font-family="sans-serif" font-size="14" lengthAdjust="spacing" textLength="100" x="494" y="327.7764">int? ManagerId</text><text fill="#000000" font-family="sans-serif" font-size="14" lengthAdjust="spacing" textLength="4" x="494" y="344.0732"> </text><line style="stroke:#181818;stroke-width:1.0;" x1="475" x2="890" y1="351.375" y2="351.375"/><ellipse cx="485" cy="365.0234" fill="none" rx="3" ry="3" style="stroke:#038048;stroke-width:1.0;"/><text fill="#000000" font-family="sans-serif" font-size="14" lengthAdjust="spacing" textLength="391" x="494" y="368.3701">User Manager              + ICollection&lt;User&gt; Subordinates</text></g><!--MD5=[41314a0efc36828092cff9ebad2fcafd]
class Group--><g id="elem_Group"><rect codeLine="24" fill="#F1F1F1" height="96.8906" id="Group" rx="2.5" ry="2.5" style="stroke:#181818;stroke-width:0.5;" width="197" x="584" y="7"/><ellipse cx="656.75" cy="23" fill="#ADD1B2" rx="11" ry="11" style="stroke:#181818;stroke-width:1.0;"/><path d="M659.7188,28.6406 Q659.1406,28.9375 658.5,29.0781 Q657.8594,29.2344 657.1563,29.2344 Q654.6563,29.2344 653.3281,27.5938 Q652.0156,25.9375 652.0156,22.8125 Q652.0156,19.6875 653.3281,18.0313 Q654.6563,16.375 657.1563,16.375 Q657.8594,16.375 658.5,16.5313 Q659.1563,16.6875 659.7188,16.9844 L659.7188,19.7031 Q659.0938,19.125 658.5,18.8594 Q657.9063,18.5781 657.2813,18.5781 Q655.9375,18.5781 655.25,19.6563 Q654.5625,20.7188 654.5625,22.8125 Q654.5625,24.9063 655.25,25.9844 Q655.9375,27.0469 657.2813,27.0469 Q657.9063,27.0469 658.5,26.7813 Q659.0938,26.5 659.7188,25.9219 L659.7188,28.6406 Z " fill="#000000"/><text fill="#000000" font-family="sans-serif" font-size="14" lengthAdjust="spacing" textLength="43" x="677.25" y="27.8467">Group</text><line style="stroke:#181818;stroke-width:0.5;" x1="585" x2="780" y1="39" y2="39"/><ellipse cx="595" cy="52.6484" fill="none" rx="3" ry="3" style="stroke:#038048;stroke-width:1.0;"/><text fill="#000000" font-family="sans-serif" font-size="14" lengthAdjust="spacing" textLength="33" x="604" y="55.9951">int Id</text><ellipse cx="595" cy="68.9453" fill="none" rx="3" ry="3" style="stroke:#038048;stroke-width:1.0;"/><text fill="#000000" font-family="sans-serif" font-size="14" lengthAdjust="spacing" textLength="83" x="604" y="72.292">string Name</text><line style="stroke:#181818;stroke-width:1.0;" x1="585" x2="780" y1="79.5938" y2="79.5938"/><ellipse cx="595" cy="93.2422" fill="none" rx="3" ry="3" style="stroke:#038048;stroke-width:1.0;"/><text fill="#000000" font-family="sans-serif" font-size="14" lengthAdjust="spacing" textLength="171" x="604" y="96.5889">ICollection&lt;User&gt; Users</text></g><!--MD5=[69bf2be6d9fff07ffc9075bf456291dd]
class EvaluationCycle--><g id="elem_EvaluationCycle"><rect codeLine="31" fill="#F1F1F1" height="145.7813" id="EvaluationCycle" rx="2.5" ry="2.5" style="stroke:#181818;stroke-width:0.5;" width="273" x="166" y="205.5"/><ellipse cx="244.75" cy="221.5" fill="#ADD1B2" rx="11" ry="11" style="stroke:#181818;stroke-width:1.0;"/><path d="M247.7188,227.1406 Q247.1406,227.4375 246.5,227.5781 Q245.8594,227.7344 245.1563,227.7344 Q242.6563,227.7344 241.3281,226.0938 Q240.0156,224.4375 240.0156,221.3125 Q240.0156,218.1875 241.3281,216.5313 Q242.6563,214.875 245.1563,214.875 Q245.8594,214.875 246.5,215.0313 Q247.1563,215.1875 247.7188,215.4844 L247.7188,218.2031 Q247.0938,217.625 246.5,217.3594 Q245.9063,217.0781 245.2813,217.0781 Q243.9375,217.0781 243.25,218.1563 Q242.5625,219.2188 242.5625,221.3125 Q242.5625,223.4063 243.25,224.4844 Q243.9375,225.5469 245.2813,225.5469 Q245.9063,225.5469 246.5,225.2813 Q247.0938,225 247.7188,224.4219 L247.7188,227.1406 Z " fill="#000000"/><text fill="#000000" font-family="sans-serif" font-size="14" lengthAdjust="spacing" textLength="107" x="265.25" y="226.3467">EvaluationCycle</text><line style="stroke:#181818;stroke-width:0.5;" x1="167" x2="438" y1="237.5" y2="237.5"/><ellipse cx="177" cy="251.1484" fill="none" rx="3" ry="3" style="stroke:#038048;stroke-width:1.0;"/><text fill="#000000" font-family="sans-serif" font-size="14" lengthAdjust="spacing" textLength="33" x="186" y="254.4951">int Id</text><ellipse cx="177" cy="267.4453" fill="none" rx="3" ry="3" style="stroke:#038048;stroke-width:1.0;"/><text fill="#000000" font-family="sans-serif" font-size="14" lengthAdjust="spacing" textLength="72" x="186" y="270.792">string Title</text><ellipse cx="177" cy="283.7422" fill="none" rx="3" ry="3" style="stroke:#038048;stroke-width:1.0;"/><text fill="#000000" font-family="sans-serif" font-size="14" lengthAdjust="spacing" textLength="136" x="186" y="287.0889">DateTime StartDate</text><ellipse cx="177" cy="300.0391" fill="none" rx="3" ry="3" style="stroke:#038048;stroke-width:1.0;"/><text fill="#000000" font-family="sans-serif" font-size="14" lengthAdjust="spacing" textLength="131" x="186" y="303.3857">DateTime EndDate</text><ellipse cx="177" cy="316.3359" fill="none" rx="3" ry="3" style="stroke:#038048;stroke-width:1.0;"/><text fill="#000000" font-family="sans-serif" font-size="14" lengthAdjust="spacing" textLength="65" x="186" y="319.6826">int Status</text><line style="stroke:#181818;stroke-width:1.0;" x1="167" x2="438" y1="326.9844" y2="326.9844"/><ellipse cx="177" cy="340.6328" fill="none" rx="3" ry="3" style="stroke:#038048;stroke-width:1.0;"/><text fill="#000000" font-family="sans-serif" font-size="14" lengthAdjust="spacing" textLength="247" x="186" y="343.9795">ICollection&lt;Evaluation&gt; Evaluations</text></g><!--MD5=[fc7123defb831ecdd44b2d9bcef6cceb]
class Question--><g id="elem_Question"><rect codeLine="41" fill="#F1F1F1" height="96.8906" id="Question" rx="2.5" ry="2.5" style="stroke:#181818;stroke-width:0.5;" width="305" x="7" y="502"/><ellipse cx="123.75" cy="518" fill="#ADD1B2" rx="11" ry="11" style="stroke:#181818;stroke-width:1.0;"/><path d="M126.7188,523.6406 Q126.1406,523.9375 125.5,524.0781 Q124.8594,524.2344 124.1563,524.2344 Q121.6563,524.2344 120.3281,522.5938 Q119.0156,520.9375 119.0156,517.8125 Q119.0156,514.6875 120.3281,513.0313 Q121.6563,511.375 124.1563,511.375 Q124.8594,511.375 125.5,511.5313 Q126.1563,511.6875 126.7188,511.9844 L126.7188,514.7031 Q126.0938,514.125 125.5,513.8594 Q124.9063,513.5781 124.2813,513.5781 Q122.9375,513.5781 122.25,514.6563 Q121.5625,515.7188 121.5625,517.8125 Q121.5625,519.9063 122.25,520.9844 Q122.9375,522.0469 124.2813,522.0469 Q124.9063,522.0469 125.5,521.7813 Q126.0938,521.5 126.7188,520.9219 L126.7188,523.6406 Z " fill="#000000"/><text fill="#000000" font-family="sans-serif" font-size="14" lengthAdjust="spacing" textLength="63" x="144.25" y="522.8467">Question</text><line style="stroke:#181818;stroke-width:0.5;" x1="8" x2="311" y1="534" y2="534"/><ellipse cx="18" cy="547.6484" fill="none" rx="3" ry="3" style="stroke:#038048;stroke-width:1.0;"/><text fill="#000000" font-family="sans-serif" font-size="14" lengthAdjust="spacing" textLength="33" x="27" y="550.9951">int Id</text><ellipse cx="18" cy="563.9453" fill="none" rx="3" ry="3" style="stroke:#038048;stroke-width:1.0;"/><text fill="#000000" font-family="sans-serif" font-size="14" lengthAdjust="spacing" textLength="73" x="27" y="567.292">string Text</text><line style="stroke:#181818;stroke-width:1.0;" x1="8" x2="311" y1="574.5938" y2="574.5938"/><ellipse cx="18" cy="588.2422" fill="none" rx="3" ry="3" style="stroke:#038048;stroke-width:1.0;"/><text fill="#000000" font-family="sans-serif" font-size="14" lengthAdjust="spacing" textLength="279" x="27" y="591.5889">ICollection&lt;EvaluationAnswer&gt; Answers</text></g><!--MD5=[71e8807956d33805e77353b9d7e2df39]
class Evaluation--><g id="elem_Evaluation"><rect codeLine="48" fill="#F1F1F1" height="194.6719" id="Evaluation" rx="2.5" ry="2.5" style="stroke:#181818;stroke-width:0.5;" width="305" x="347" y="453"/><ellipse cx="460.25" cy="469" fill="#ADD1B2" rx="11" ry="11" style="stroke:#181818;stroke-width:1.0;"/><path d="M463.2188,474.6406 Q462.6406,474.9375 462,475.0781 Q461.3594,475.2344 460.6563,475.2344 Q458.1563,475.2344 456.8281,473.5938 Q455.5156,471.9375 455.5156,468.8125 Q455.5156,465.6875 456.8281,464.0313 Q458.1563,462.375 460.6563,462.375 Q461.3594,462.375 462,462.5313 Q462.6563,462.6875 463.2188,462.9844 L463.2188,465.7031 Q462.5938,465.125 462,464.8594 Q461.4063,464.5781 460.7813,464.5781 Q459.4375,464.5781 458.75,465.6563 Q458.0625,466.7188 458.0625,468.8125 Q458.0625,470.9063 458.75,471.9844 Q459.4375,473.0469 460.7813,473.0469 Q461.4063,473.0469 462,472.7813 Q462.5938,472.5 463.2188,471.9219 L463.2188,474.6406 Z " fill="#000000"/><text fill="#000000" font-family="sans-serif" font-size="14" lengthAdjust="spacing" textLength="70" x="480.75" y="473.8467">Evaluation</text><line style="stroke:#181818;stroke-width:0.5;" x1="348" x2="651" y1="485" y2="485"/><ellipse cx="358" cy="498.6484" fill="none" rx="3" ry="3" style="stroke:#038048;stroke-width:1.0;"/><text fill="#000000" font-family="sans-serif" font-size="14" lengthAdjust="spacing" textLength="33" x="367" y="501.9951">int Id</text><ellipse cx="358" cy="514.9453" fill="none" rx="3" ry="3" style="stroke:#038048;stroke-width:1.0;"/><text fill="#000000" font-family="sans-serif" font-size="14" lengthAdjust="spacing" textLength="128" x="367" y="518.292">int EvaluatorUserId</text><ellipse cx="358" cy="531.2422" fill="none" rx="3" ry="3" style="stroke:#038048;stroke-width:1.0;"/><text fill="#000000" font-family="sans-serif" font-size="14" lengthAdjust="spacing" textLength="132" x="367" y="534.5889">int EvaluateeUserId</text><ellipse cx="358" cy="547.5391" fill="none" rx="3" ry="3" style="stroke:#038048;stroke-width:1.0;"/><text fill="#000000" font-family="sans-serif" font-size="14" lengthAdjust="spacing" textLength="140" x="367" y="550.8857">int EvaluationCycleId</text><ellipse cx="358" cy="563.8359" fill="none" rx="3" ry="3" style="stroke:#038048;stroke-width:1.0;"/><text fill="#000000" font-family="sans-serif" font-size="14" lengthAdjust="spacing" textLength="148" x="367" y="567.1826">DateTime Timestamp</text><line style="stroke:#181818;stroke-width:1.0;" x1="348" x2="651" y1="574.4844" y2="574.4844"/><ellipse cx="358" cy="588.1328" fill="none" rx="3" ry="3" style="stroke:#038048;stroke-width:1.0;"/><text fill="#000000" font-family="sans-serif" font-size="14" lengthAdjust="spacing" textLength="131" x="367" y="591.4795">User EvaluatorUser</text><ellipse cx="358" cy="604.4297" fill="none" rx="3" ry="3" style="stroke:#038048;stroke-width:1.0;"/><text fill="#000000" font-family="sans-serif" font-size="14" lengthAdjust="spacing" textLength="135" x="367" y="607.7764">User EvaluateeUser</text><ellipse cx="358" cy="620.7266" fill="none" rx="3" ry="3" style="stroke:#038048;stroke-width:1.0;"/><text fill="#000000" font-family="sans-serif" font-size="14" lengthAdjust="spacing" textLength="218" x="367" y="624.0732">EvaluationCycle EvaluationCycle</text><ellipse cx="358" cy="637.0234" fill="none" rx="3" ry="3" style="stroke:#038048;stroke-width:1.0;"/><text fill="#000000" font-family="sans-serif" font-size="14" lengthAdjust="spacing" textLength="279" x="367" y="640.3701">ICollection&lt;EvaluationAnswer&gt; Answers</text></g><!--MD5=[cfff7382b68299de22e2a7542bdf6753]
class EvaluationAnswer--><g id="elem_EvaluationAnswer"><rect codeLine="61" fill="#F1F1F1" height="145.7813" id="EvaluationAnswer" rx="2.5" ry="2.5" style="stroke:#181818;stroke-width:0.5;" width="170" x="116.5" y="725"/><ellipse cx="139.15" cy="741" fill="#ADD1B2" rx="11" ry="11" style="stroke:#181818;stroke-width:1.0;"/><path d="M142.1188,746.6406 Q141.5406,746.9375 140.9,747.0781 Q140.2594,747.2344 139.5563,747.2344 Q137.0563,747.2344 135.7281,745.5938 Q134.4156,743.9375 134.4156,740.8125 Q134.4156,737.6875 135.7281,736.0313 Q137.0563,734.375 139.5563,734.375 Q140.2594,734.375 140.9,734.5313 Q141.5563,734.6875 142.1188,734.9844 L142.1188,737.7031 Q141.4938,737.125 140.9,736.8594 Q140.3063,736.5781 139.6813,736.5781 Q138.3375,736.5781 137.65,737.6563 Q136.9625,738.7188 136.9625,740.8125 Q136.9625,742.9063 137.65,743.9844 Q138.3375,745.0469 139.6813,745.0469 Q140.3063,745.0469 140.9,744.7813 Q141.4938,744.5 142.1188,743.9219 L142.1188,746.6406 Z " fill="#000000"/><text fill="#000000" font-family="sans-serif" font-size="14" lengthAdjust="spacing" textLength="121" x="154.85" y="745.8467">EvaluationAnswer</text><line style="stroke:#181818;stroke-width:0.5;" x1="117.5" x2="285.5" y1="757" y2="757"/><ellipse cx="127.5" cy="770.6484" fill="none" rx="3" ry="3" style="stroke:#038048;stroke-width:1.0;"/><text fill="#000000" font-family="sans-serif" font-size="14" lengthAdjust="spacing" textLength="33" x="136.5" y="773.9951">int Id</text><ellipse cx="127.5" cy="786.9453" fill="none" rx="3" ry="3" style="stroke:#038048;stroke-width:1.0;"/><text fill="#000000" font-family="sans-serif" font-size="14" lengthAdjust="spacing" textLength="103" x="136.5" y="790.292">int EvaluationId</text><ellipse cx="127.5" cy="803.2422" fill="none" rx="3" ry="3" style="stroke:#038048;stroke-width:1.0;"/><text fill="#000000" font-family="sans-serif" font-size="14" lengthAdjust="spacing" textLength="96" x="136.5" y="806.5889">int QuestionId</text><ellipse cx="127.5" cy="819.5391" fill="none" rx="3" ry="3" style="stroke:#038048;stroke-width:1.0;"/><text fill="#000000" font-family="sans-serif" font-size="14" lengthAdjust="spacing" textLength="132" x="136.5" y="822.8857">string AnswerValue</text><line style="stroke:#181818;stroke-width:1.0;" x1="117.5" x2="285.5" y1="830.1875" y2="830.1875"/><ellipse cx="127.5" cy="843.8359" fill="none" rx="3" ry="3" style="stroke:#038048;stroke-width:1.0;"/><text fill="#000000" font-family="sans-serif" font-size="14" lengthAdjust="spacing" textLength="144" x="136.5" y="847.1826">Evaluation Evaluation</text><ellipse cx="127.5" cy="860.1328" fill="none" rx="3" ry="3" style="stroke:#038048;stroke-width:1.0;"/><text fill="#000000" font-family="sans-serif" font-size="14" lengthAdjust="spacing" textLength="130" x="136.5" y="863.4795">Question Question</text></g><!--MD5=[1f12d177c84922ed4f166f09ee62ceaa]
link User to UserRole--><g id="link_User_UserRole"><path codeLine="76" d="M704.71,376.21 C714.78,420.06 726.19,469.77 734.21,504.68 " fill="none" id="User-to-UserRole" style="stroke:#181818;stroke-width:1.0;stroke-dasharray:7.0,7.0;"/><polygon fill="#181818" points="735.36,509.71,737.2525,500.0447,734.2451,504.8359,729.4539,501.8285,735.36,509.71" style="stroke:#181818;stroke-width:1.0;"/><text fill="#000000" font-family="sans-serif" font-size="13" lengthAdjust="spacing" textLength="30" x="715.5" y="419.0669">uses</text></g><!--MD5=[6be56f846aeaa669626e62109c72d129]
link Group to User--><g id="link_Group_User"><path codeLine="79" d="M682.5,104.18 C682.5,126.64 682.5,154.29 682.5,180.85 " fill="none" id="Group-User" style="stroke:#181818;stroke-width:1.0;"/><text fill="#000000" font-family="sans-serif" font-size="13" lengthAdjust="spacing" textLength="23" x="683.5" y="147.0669">has</text><text fill="#000000" font-family="sans-serif" font-size="13" lengthAdjust="spacing" textLength="8" x="673.9625" y="123.8124">1</text><text fill="#000000" font-family="sans-serif" font-size="13" lengthAdjust="spacing" textLength="23" x="658.6195" y="169.884">0..*</text></g><!--MD5=[993a1ed30139d6bc9fd462e29443e622]
link User to User--><g id="link_User_User"><path codeLine="83" d="M891.19,257.54 C912.44,261.68 926,268.67 926,278.5 C926,288.33 912.44,295.32 891.19,299.46 " fill="none" id="User-User" style="stroke:#181818;stroke-width:1.0;"/><text fill="#000000" font-family="sans-serif" font-size="13" lengthAdjust="spacing" textLength="145" x="932" y="283.0669">manager/subordinates</text><text fill="#000000" font-family="sans-serif" font-size="13" lengthAdjust="spacing" textLength="24" x="899.121" y="253.5924">0..1</text><text fill="#000000" font-family="sans-serif" font-size="13" lengthAdjust="spacing" textLength="23" x="899.1031" y="297.0189">0..*</text></g><!--MD5=[7bfca3e64c180476b8ea0ffa8c59e7e2]
link User to Evaluation--><g id="link_User_Evaluation"><path codeLine="87" d="M517.15,376.09 C509.18,385.34 502.16,395.3 496.5,406 C488.92,420.32 485.39,436.61 484.33,452.96 " fill="none" id="User-Evaluation" style="stroke:#181818;stroke-width:1.0;"/><text fill="#000000" font-family="sans-serif" font-size="13" lengthAdjust="spacing" textLength="79" x="497.5" y="419.0669">as Evaluator</text><text fill="#000000" font-family="sans-serif" font-size="13" lengthAdjust="spacing" textLength="8" x="496.7134" y="395.8914">1</text><text fill="#000000" font-family="sans-serif" font-size="13" lengthAdjust="spacing" textLength="23" x="459.2881" y="442.0024">0..*</text></g><!--MD5=[7bfca3e64c180476b8ea0ffa8c59e7e2]
link User to Evaluation--><g id="link_User_Evaluation"><path codeLine="88" d="M616.95,376.21 C600.13,401.03 582.04,427.73 565.21,452.55 " fill="none" id="User-Evaluation-1" style="stroke:#181818;stroke-width:1.0;"/><text fill="#000000" font-family="sans-serif" font-size="13" lengthAdjust="spacing" textLength="82" x="596.5" y="419.0669">as Evaluatee</text><text fill="#000000" font-family="sans-serif" font-size="13" lengthAdjust="spacing" textLength="8" x="604.0598" y="395.6907">1</text><text fill="#000000" font-family="sans-serif" font-size="13" lengthAdjust="spacing" textLength="23" x="546.191" y="441.8898">0..*</text></g><!--MD5=[95cc830b1f0f8bd63d74c51e9ff3da4f]
link EvaluationCycle to Evaluation--><g id="link_EvaluationCycle_Evaluation"><path codeLine="91" d="M355.03,351.5 C377.72,382.59 404.59,419.42 428.97,452.84 " fill="none" id="EvaluationCycle-Evaluation" style="stroke:#181818;stroke-width:1.0;"/><text fill="#000000" font-family="sans-serif" font-size="13" lengthAdjust="spacing" textLength="54" x="407.5" y="419.0669">contains</text><text fill="#000000" font-family="sans-serif" font-size="13" lengthAdjust="spacing" textLength="8" x="351.6555" y="371.2563">1</text><text fill="#000000" font-family="sans-serif" font-size="13" lengthAdjust="spacing" textLength="23" x="399.6896" y="441.8732">0..*</text></g><!--MD5=[9bf57a4e3bc4d2861630a45ad38a59ff]
link Evaluation to EvaluationAnswer--><g id="link_Evaluation_EvaluationAnswer"><path codeLine="94" d="M382.15,648.18 C350.23,674.47 316.27,702.45 286.52,726.96 " fill="none" id="Evaluation-EvaluationAnswer" style="stroke:#181818;stroke-width:1.0;"/><text fill="#000000" font-family="sans-serif" font-size="13" lengthAdjust="spacing" textLength="23" x="342.5" y="691.0669">has</text><text fill="#000000" font-family="sans-serif" font-size="13" lengthAdjust="spacing" textLength="8" x="365.6176" y="667.6586">1</text><text fill="#000000" font-family="sans-serif" font-size="13" lengthAdjust="spacing" textLength="23" x="294.5131" y="717.5374">0..*</text></g><!--MD5=[fead0c96d233f29216e4a27667d0a38c]
link Question to EvaluationAnswer--><g id="link_Question_EvaluationAnswer"><path codeLine="97" d="M167.65,599.13 C173.75,634.82 182.22,684.29 189.15,724.84 " fill="none" id="Question-EvaluationAnswer" style="stroke:#181818;stroke-width:1.0;"/><text fill="#000000" font-family="sans-serif" font-size="13" lengthAdjust="spacing" textLength="42" x="184.5" y="691.0669">usedIn</text><text fill="#000000" font-family="sans-serif" font-size="13" lengthAdjust="spacing" textLength="8" x="160.2336" y="619.1072">1</text><text fill="#000000" font-family="sans-serif" font-size="13" lengthAdjust="spacing" textLength="23" x="163.8023" y="713.9842">0..*</text></g><!--MD5=[bcbf8767e2c9f46903b7105b8509369f]
@startuml
'===========================================================
' Ορισμός Enum κλάσης για ρόλους
'===========================================================
enum UserRole {
  Admin
  User
}

'===========================================================
' Κλάσεις
'===========================================================
class User {
  + int Id
  + string FirstName
  + string LastName
  + string Email
  + UserRole Role
  + int? GroupId
  + int? ManagerId

  - -
  + User Manager              + ICollection<User> Subordinates
}
class Group {
  + int Id
  + string Name
  - -
  + ICollection<User> Users
}

class EvaluationCycle {
  + int Id
  + string Title
  + DateTime StartDate
  + DateTime EndDate
  + int Status
  - -
  + ICollection<Evaluation> Evaluations
}

class Question {
  + int Id
  + string Text
  - -
  + ICollection<EvaluationAnswer> Answers
}

class Evaluation {
  + int Id
  + int EvaluatorUserId
  + int EvaluateeUserId
  + int EvaluationCycleId
  + DateTime Timestamp
  - -
  + User EvaluatorUser
  + User EvaluateeUser
  + EvaluationCycle EvaluationCycle
  + ICollection<EvaluationAnswer> Answers
}

class EvaluationAnswer {
  + int Id
  + int EvaluationId
  + int QuestionId
  + string AnswerValue
  - -
  + Evaluation Evaluation
  + Question Question
}

'===========================================================
' Συσχετίσεις (Relationships)
'===========================================================

' Ένας User χρησιμοποιεί UserRole
User ..> UserRole : uses

' Ένα Group έχει πολλούς Users
Group "1" - - "0..*" User : has

' Συσχέτιση manager μεταξύ χρηστών:
' Ένας User μπορεί να έχει 0 ή 1 Manager (ο οποίος είναι επίσης User)
User "0..1" - - "0..*" User : manager/subordinates

' Ένας User μπορεί να κάνει πολλές Evaluations (ως Evaluator)
' και να δεχτεί πολλές Evaluations (ως Evaluatee)
User "1" - - "0..*" Evaluation : as Evaluator
User "1" - - "0..*" Evaluation : as Evaluatee

' Ένας EvaluationCycle περιέχει πολλές Evaluations
EvaluationCycle "1" - - "0..*" Evaluation : contains

' Κάθε Evaluation συνδέεται με πολλά EvaluationAnswer
Evaluation "1" - - "0..*" EvaluationAnswer : has

' Μία Question μπορεί να είναι μέρος πολλών EvaluationAnswer
Question "1" - - "0..*" EvaluationAnswer : usedIn
@enduml

@startuml
enum UserRole {
  Admin
  User
}

class User {
  + int Id
  + string FirstName
  + string LastName
  + string Email
  + UserRole Role
  + int? GroupId
  + int? ManagerId

  - -
  + User Manager              + ICollection<User> Subordinates
}
class Group {
  + int Id
  + string Name
  - -
  + ICollection<User> Users
}

class EvaluationCycle {
  + int Id
  + string Title
  + DateTime StartDate
  + DateTime EndDate
  + int Status
  - -
  + ICollection<Evaluation> Evaluations
}

class Question {
  + int Id
  + string Text
  - -
  + ICollection<EvaluationAnswer> Answers
}

class Evaluation {
  + int Id
  + int EvaluatorUserId
  + int EvaluateeUserId
  + int EvaluationCycleId
  + DateTime Timestamp
  - -
  + User EvaluatorUser
  + User EvaluateeUser
  + EvaluationCycle EvaluationCycle
  + ICollection<EvaluationAnswer> Answers
}

class EvaluationAnswer {
  + int Id
  + int EvaluationId
  + int QuestionId
  + string AnswerValue
  - -
  + Evaluation Evaluation
  + Question Question
}


User ..> UserRole : uses

Group "1" - - "0..*" User : has

User "0..1" - - "0..*" User : manager/subordinates

User "1" - - "0..*" Evaluation : as Evaluator
User "1" - - "0..*" Evaluation : as Evaluatee

EvaluationCycle "1" - - "0..*" Evaluation : contains

Evaluation "1" - - "0..*" EvaluationAnswer : has

Question "1" - - "0..*" EvaluationAnswer : usedIn
@enduml

PlantUML version 1.2022.7(Mon Aug 22 17:01:30 UTC 2022)
(GPL source distribution)
Java Runtime: OpenJDK Runtime Environment
JVM: OpenJDK 64-Bit Server VM
Default Encoding: UTF-8
Language: en
Country: null
--></g></svg>